# xmcd
#
# Track frame offsets: 
#        150
#        6575
#        20972
#        51139
#        71234
#        141685
#        143111
#        158807
#        177261
#        192651
#        210396
#        218399
#        235041
#        262417
#        263363
#
# Disc length: 3697 seconds
#
# Revision: 1
# Processed by: cddbd v1.5.2PL0 Copyright (c) Steve Scherf et al.
# Submitted via: ExactAudioCopy v0.95b4
#
DISCID=ea0e6f0f
DTITLE=Madlib  - Medicine Show  - No. 7 - High Jazz
DYEAR=2010
DGENRE=Jazz
TTITLE0=The Jackson Conti Band - Steppin' Into Tomorrow (Prelude)
TTITLE1=Generation Match - Electronic Dimensions
TTITLE2=Jahari Massamba Unit - Pretty Eyes
TTITLE3=The Kenny Cook Octet - High Jazz
TTITLE4=Yesterdays New Quintet - Medley: Don't You Worry Bout A Thing 
TTITLE4=(Live)
TTITLE5=Interlude
TTITLE6=The Big Black Foot Band feat. The Black Spirits - Reality Or D
TTITLE6=ream
TTITLE7=Russel Jenkins Jazz Express - Drunk Again
TTITLE8=Poyser, Riggins and Jackson - Funky Butt, Part 1
TTITLE9=Jahari Massamba Unit - Wonderin'/Nightime
TTITLE10=R.M.C. - Space and Time
TTITLE11=Yesterdays New Quintet - Conquistador
TTITLE12=The Big Black Foot Band feat. The Black Spirits - Tarzan's Th
TTITLE12=eme
TTITLE13=Interlude
TTITLE14=Joe McDuphrey Experience - Kimo
EXTD=YEAR: 2010
EXTT0=
EXTT1=
EXTT2=
EXTT3=
EXTT4=
EXTT5=
EXTT6=
EXTT7=
EXTT8=
EXTT9=
EXTT10=
EXTT11=
EXTT12=
EXTT13=
EXTT14=
PLAYORDER=
